<?xml version="1.0" encoding="UTF-8"?>
<svg xmlns="http://www.w3.org/2000/svg" viewBox="0 0 3714 1120" preserveAspectRatio="xMidYMid meet"><g transform="translate(0.000000,1120.000000) scale(0.100000,-0.100000)"><path fill="#1B2A49"     d="M15972 7959 c-250 -15 -560 -68 -772 -133 -723 -219 -1150 -710
-1150 -1319 0 -567 344 -944 1077 -1182 152 -50 374 -104 813 -200 493 -107
609 -135 735 -175 206 -66 351 -164 405 -276 19 -39 24 -65 24 -125 0 -65 -4
-85 -32 -142 -41 -82 -96 -132 -205 -186 -173 -85 -393 -123 -702 -123 -413
-1 -830 79 -1231 233 -117 45 -386 179 -496 247 -77 48 -49 83 -258 -318 -68
-129 -152 -289 -187 -354 -34 -66 -63 -123 -63 -128 0 -26 369 -232 535 -298
490 -196 1074 -300 1686 -300 838 0 1452 190 1841 568 124 121 190 211 258
355 90 188 128 375 117 581 -30 596 -431 977 -1251 1191 -72 19 -333 77 -581
130 -247 53 -506 110 -575 127 -366 88 -542 177 -615 309 -27 49 -30 63 -30
144 0 78 4 97 27 140 160 304 845 418 1558 259 282 -63 599 -185 782 -300 38
-24 38 -24 83 67 89 176 365 752 363 754 -17 15 -160 96 -240 136 -492 247
-1186 362 -1916 318z M1522 5567 l3 -2322 580 0 580 0 5 1350 5 1350 298 -445 c164 -245
399 -593 522 -775 123 -181 321 -475 441 -652 218 -323 218 -323 546 -323 316
0 328 1 338 20 6 11 333 505 728 1097 l717 1078 5 -1350 5 -1350 578 0 577 0
0 2321 0 2321 -529 1 -528 1 -391 -582 c-215 -320 -454 -676 -533 -792 -78
-115 -322 -478 -542 -805 -220 -327 -405 -601 -411 -608 -10 -10 -56 51 -217
290 -112 167 -425 627 -695 1023 -270 396 -606 889 -746 1095 -254 375 -254
375 -797 377 l-543 3 4 -2323z M19046 7882 c-3 -3 -6 -1046 -6 -2319 l0 -2313 1950 0 1950 0 0 450
0 450 -1395 0 -1395 0 0 505 0 505 1195 0 1195 0 0 450 0 450 -1200 0 -1200 0
0 465 0 465 1350 0 1350 0 -2 448 -3 447 -1892 2 c-1040 1 -1894 -1 -1897 -5z"/><path fill="#7B1FA2"   d="M16053 7963 c9 -2 25 -2 35 0 9 3 1 5 -18 5 -19 0 -27 -2 -17 -5z M16448 7963 c12 -2 30 -2 40 0 9 3 -1 5 -23 4 -22 0 -30 -2 -17 -4z M16638 7953 c6 -2 18 -2 25 0 6 3 1 5 -13 5 -14 0 -19 -2 -12 -5z M2168 7883 c6 -2 18 -2 25 0 6 3 1 5 -13 5 -14 0 -19 -2 -12 -5z M6898 7883 c12 -2 32 -2 45 0 12 2 2 4 -23 4 -25 0 -35 -2 -22 -4z M7008 7883 c6 -2 18 -2 25 0 6 3 1 5 -13 5 -14 0 -19 -2 -12 -5z M8414 7876 c-3 -8 -3 -630 -1 -1382 4 -1470 3 -1429 57 -1692 77
-379 275 -736 557 -1003 223 -211 482 -362 798 -467 326 -109 618 -152 1025
-152 438 1 816 66 1146 198 51 20 51 20 280 -285 126 -168 230 -309 232 -313
2 -4 -58 -47 -133 -95 -78 -50 -134 -93 -131 -100 7 -20 1636 -2189 1657
-2207 19 -16 22 -16 67 13 332 210 1112 727 1112 737 0 7 -216 300 -480 650
-524 696 -1027 1361 -1124 1488 -61 80 -61 80 -200 -8 -113 -73 -141 -87 -151
-76 -22 23 -455 608 -455 614 0 3 32 41 72 83 231 246 395 561 472 903 56 248
56 256 56 1741 l0 1367 -582 -2 -583 -3 -6 -1395 c-6 -1530 -1 -1422 -65
-1608 -166 -483 -584 -752 -1174 -754 -395 -2 -702 104 -934 322 -158 149
-269 368 -322 635 -17 83 -18 194 -21 1448 l-4 1357 -580 0 c-485 0 -580 -2
-585 -14z M20822 7883 c59 -2 158 -2 220 0 62 1 14 3 -107 3 -121 0 -172 -2
-113 -3z M16238 7053 c18 -2 45 -2 60 0 15 2 0 4 -33 4 -33 0 -45 -2 -27 -4z M20144 6695 c0 -154 2 -216 3 -137 2 79 2 205 0 280 -1 75 -3 11 -3
-143z M11565 6362 c-63 -39 -59 -10 -66 -546 -5 -458 -7 -496 -26 -567 -45
-162 -119 -286 -232 -391 -85 -79 -182 -129 -306 -159 -80 -19 -106 -20 -230
-14 -274 14 -273 14 -305 -22 -53 -59 -52 -153 3 -208 45 -45 129 -60 337 -59
182 0 266 15 417 73 242 94 452 312 551 574 74 197 77 225 77 762 0 434 -2
483 -17 511 -33 60 -140 84 -203 46z M20144 6215 c0 -49 1 -71 3 -48 2 23 2 64 0 90 -2 26 -3 8 -3 -42z M22545 5610 c0 -250 1 -353 2 -227 2 125 2 329 0 455 -1 125 -2 22
-2 -228z M6284 5755 c0 -93 2 -133 3 -88 2 45 2 122 0 170 -1 48 -3 12 -3 -82z M14340 5755 c13 -14 26 -25 28 -25 3 0 -5 11 -18 25 -13 14 -26 25
-28 25 -3 0 5 -11 18 -25z M6282 5500 c0 -14 2 -19 5 -12 2 6 2 18 0 25 -3 6 -5 1 -5 -13z M6284 5270 c0 -113 2 -159 3 -102 2 56 2 148 0 205 -1 56 -3 10 -3
-103z M17005 4770 c10 -11 20 -20 23 -20 3 0 -3 9 -13 20 -10 11 -20 20
-23 20 -3 0 3 -9 13 -20z M22942 3703 l-2 -453 -1952 -3 -1953 -2 1953 -3 c1555 -1 1954 1
1957 11 3 6 4 212 3 457 -3 445 -3 445 -6 -7z M16118 4093 c23 -2 61 -2 85 0 23 2 4 4 -43 4 -47 0 -66 -2 -42 -4z M18010 3763 c-55 -58 -55 -58 3 -3 53 50 62 60 54 60 -1 0 -27 -26
-57 -57z M4338 3743 c89 -2 235 -2 325 0 89 1 16 3 -163 3 -179 0 -252 -2
-162 -3z M1522 3720 c0 -14 2 -19 5 -12 2 6 2 18 0 25 -3 6 -5 1 -5 -13z M1522 3660 c0 -14 2 -19 5 -12 2 6 2 18 0 25 -3 6 -5 1 -5 -13z M1524 3455 c0 -99 2 -138 3 -87 2 51 2 132 0 180 -1 48 -3 6 -3 -93z M7452 3380 c0 -14 2 -19 5 -12 2 6 2 18 0 25 -3 6 -5 1 -5 -13z M7453 3290 c0 -25 2 -35 4 -22 2 12 2 32 0 45 -2 12 -4 2 -4 -23z M1993 3243 c31 -2 83 -2 115 0 31 2 5 3 -58 3 -63 0 -89 -1 -57 -3z M2198 3243 c17 -2 47 -2 65 0 17 2 3 4 -33 4 -36 0 -50 -2 -32 -4z M2618 3243 c6 -2 18 -2 25 0 6 3 1 5 -13 5 -14 0 -19 -2 -12 -5z M6543 3243 c136 -2 358 -2 495 0 136 1 24 2 -248 2 -272 0 -384 -1
-247 -2z M7358 3243 c18 -2 45 -2 60 0 15 2 0 4 -33 4 -33 0 -45 -2 -27 -4z M16118 3173 c23 -2 61 -2 85 0 23 2 4 4 -43 4 -47 0 -66 -2 -42 -4z"/><path fill="#CE93D8" d="M32984 8131 c-2 -2 -4 -1104 -4 -2448 l0 -2443 280 0 c280 0 280 0
280 300 0 301 0 301 56 238 78 -88 214 -209 298 -265 96 -64 271 -154 386
-198 346 -132 805 -164 1200 -84 591 120 1058 474 1294 981 213 456 215 1062
7 1529 -254 568 -753 922 -1446 1025 -160 24 -484 24 -640 0 -426 -65 -748
-217 -1007 -477 -118 -118 -118 -118 -120 861 l-3 979 -288 3 c-159 2 -291 1
-293 -1z m2296 -1846 c483 -107 843 -419 984 -850 175 -536 34 -1109 -353
-1440 -199 -169 -396 -263 -656 -311 -140 -26 -420 -26 -560 0 -414 77 -768
318 -966 658 -157 268 -199 636 -114 978 122 486 515 852 1031 959 138 29 146
29 364 26 136 -2 218 -8 270 -20z M15978 7963 c12 -2 32 -2 45 0 12 2 2 4 -23 4 -25 0 -35 -2 -22 -4z M16523 7963 c15 -2 37 -2 50 0 12 2 0 4 -28 4 -27 0 -38 -2 -22 -4z M15853 7953 c9 -2 23 -2 30 0 6 3 -1 5 -18 5 -16 0 -22 -2 -12 -5z M16683 7953 c9 -2 23 -2 30 0 6 3 -1 5 -18 5 -16 0 -22 -2 -12 -5z M15748 7943 c6 -2 18 -2 25 0 6 3 1 5 -13 5 -14 0 -19 -2 -12 -5z M16783 7943 c9 -2 23 -2 30 0 6 3 -1 5 -18 5 -16 0 -22 -2 -12 -5z M16938 7923 c6 -2 18 -2 25 0 6 3 1 5 -13 5 -14 0 -19 -2 -12 -5z M7455 5825 c0 -1138 1 -1603 2 -1032 2 571 2 1503 0 2070 -1 568 -2
101 -2 -1038z M9585 6580 c0 -723 1 -1019 2 -657 2 361 2 953 0 1315 -1 361 -2 65
-2 -658z M13275 6535 c0 -748 1 -1053 2 -677 2 376 2 988 0 1360 -1 372 -2 65
-2 -683z M24823 5908 c4 -1091 7 -2137 7 -2325 l0 -343 1700 0 1700 0 0 245 0
245 -1405 0 -1405 0 0 2080 0 2080 -302 0 -301 0 6 -1982z M14405 7378 c-60 -63 -60 -63 3 -3 34 33 62 61 62 62 0 8 -10 -1 -65
-59z M16073 7043 c9 -2 25 -2 35 0 9 3 1 5 -18 5 -19 0 -27 -2 -17 -5z M16428 7043 c12 -2 32 -2 45 0 12 2 2 4 -23 4 -25 0 -35 -2 -22 -4z M15968 7033 c6 -2 18 -2 25 0 6 3 1 5 -13 5 -14 0 -19 -2 -12 -5z M16558 7033 c6 -2 18 -2 25 0 6 3 1 5 -13 5 -14 0 -19 -2 -12 -5z M20147 6983 c-5 -7 931 -7 2213 0 267 1 -121 3 -862 5 -741 1 -1349
-1 -1351 -5z M30080 6784 c-478 -36 -928 -180 -1264 -404 -59 -40 -110 -78 -113
-86 -5 -15 242 -394 257 -394 5 0 54 30 107 66 124 83 366 202 505 248 60 20
165 48 235 63 120 25 145 27 383 28 213 0 269 -3 340 -19 279 -61 475 -169
594 -327 117 -155 173 -331 191 -596 6 -92 6 -92 -752 -96 -809 -4 -830 -5
-1056 -58 -311 -73 -574 -219 -730 -404 -67 -80 -146 -234 -174 -340 -14 -55
-18 -106 -17 -240 0 -155 3 -178 27 -258 73 -237 228 -426 467 -568 327 -194
919 -268 1389 -173 327 66 634 240 834 474 37 44 37 44 37 -208 0 -252 0 -252
278 -250 l277 3 3 965 c3 1025 -4 1311 -38 1496 -40 223 -117 403 -239 561
-210 272 -524 429 -996 499 -99 14 -439 26 -545 18z m1230 -2142 c0 -240 -7
-281 -74 -417 -123 -248 -372 -450 -668 -539 -291 -88 -671 -84 -968 10 -105
33 -193 87 -275 169 -109 109 -155 224 -155 390 0 101 14 165 54 243 94 185
332 307 666 341 47 4 385 9 753 10 667 1 667 1 667 -207z M15313 6585 c0 -33 2 -45 4 -27 2 18 2 45 0 60 -2 15 -4 0 -4 -33z M14044 6505 c0 -49 1 -71 3 -48 2 23 2 64 0 90 -2 26 -3 8 -3 -42z M20143 6350 c0 -30 2 -43 4 -27 2 15 2 39 0 55 -2 15 -4 2 -4 -28z M11623 6383 c9 -2 25 -2 35 0 9 3 1 5 -18 5 -19 0 -27 -2 -17 -5z M15400 6365 c13 -14 26 -25 28 -25 3 0 -5 11 -18 25 -13 14 -26 25
-28 25 -3 0 5 -11 18 -25z M11524 6338 c-19 -23 -19 -23 4 -4 21 18 27 26 19 26 -2 0 -12 -10
-23 -22z M11495 5830 c0 -245 1 -345 2 -222 2 122 2 322 0 445 -1 122 -2 22
-2 -223z M20143 6095 c0 -22 2 -30 4 -17 2 12 2 30 0 40 -3 9 -5 -1 -4 -23z M2692 4583 c2 -742 4 -1130 5 -863 7 1283 7 2210 1 2210 -5 0 -7
-606 -6 -1347z M14295 5800 c10 -11 20 -20 23 -20 3 0 -3 9 -13 20 -10 11 -20 20
-23 20 -3 0 3 -9 13 -20z M14370 5727 c0 -2 15 -16 33 -33 32 -29 32 -29 3 4 -28 30 -36 37
-36 29z M6283 5555 c0 -22 2 -30 4 -17 2 12 2 30 0 40 -3 9 -5 -1 -4 -23z M17975 5480 c10 -11 20 -20 23 -20 3 0 -3 9 -13 20 -10 11 -20 20
-23 20 -3 0 3 -9 13 -20z M18065 5400 c10 -11 20 -20 23 -20 3 0 -3 9 -13 20 -10 11 -20 20
-23 20 -3 0 3 -9 13 -20z M11782 5360 c0 -19 2 -27 5 -17 2 9 2 25 0 35 -3 9 -5 1 -5 -18z M11482 5330 c0 -14 2 -19 5 -12 2 6 2 18 0 25 -3 6 -5 1 -5 -13z M8413 5235 c0 -44 2 -61 4 -37 2 23 2 59 0 80 -2 20 -4 1 -4 -43z M11772 5280 c0 -14 2 -19 5 -12 2 6 2 18 0 25 -3 6 -5 1 -5 -13z M12092 5190 c0 -19 2 -27 5 -17 2 9 2 25 0 35 -3 9 -5 1 -5 -18z M9592 5180 c0 -19 2 -27 5 -17 2 9 2 25 0 35 -3 9 -5 1 -5 -18z M20748 5153 c331 -2 873 -2 1205 0 331 1 60 2 -603 2 -663 0 -934 -1
-602 -2z M12082 5100 c0 -14 2 -19 5 -12 2 6 2 18 0 25 -3 6 -5 1 -5 -13z M13263 5085 c0 -22 2 -30 4 -17 2 12 2 30 0 40 -3 9 -5 -1 -4 -23z M8422 5070 c0 -19 2 -27 5 -17 2 9 2 25 0 35 -3 9 -5 1 -5 -18z M6285 4155 c0 -506 1 -714 2 -463 2 251 2 665 0 920 -1 255 -2 49 -2
-457z M13252 4995 c0 -16 2 -22 5 -12 2 9 2 23 0 30 -3 6 -5 -1 -5 -18z M8432 4985 c0 -16 2 -22 5 -12 2 9 2 23 0 30 -3 6 -5 -1 -5 -18z M11299 4923 c-24 -28 -24 -28 4 -4 15 14 27 26 27 28 0 8 -8 1 -31
-24z M11630 4880 c-6 -11 -8 -20 -6 -20 3 0 10 9 16 20 6 11 8 20 6 20 -3
0 -10 -9 -16 -20z M8452 4860 c0 -14 2 -19 5 -12 2 6 2 18 0 25 -3 6 -5 1 -5 -13z M11219 4843 c-24 -28 -24 -28 4 -4 15 14 27 26 27 28 0 8 -8 1 -31
-24z M11470 4673 c-65 -68 -65 -68 3 -3 37 35 67 66 67 67 0 8 -10 -2 -70
-64z M10478 4703 c12 -2 30 -2 40 0 9 3 -1 5 -23 4 -22 0 -30 -2 -17 -4z M18373 4625 c0 -44 2 -61 4 -37 2 23 2 59 0 80 -2 20 -4 1 -4 -43z M10633 4683 c9 -2 23 -2 30 0 6 3 -1 5 -18 5 -16 0 -22 -2 -12 -5z M10833 4683 c9 -2 23 -2 30 0 6 3 -1 5 -18 5 -16 0 -22 -2 -12 -5z M9780 4620 c6 -11 13 -20 16 -20 2 0 0 9 -6 20 -6 11 -13 20 -16 20
-2 0 0 -9 6 -20z M17102 4555 c0 -16 2 -22 5 -12 2 9 2 23 0 30 -3 6 -5 -1 -5 -18z M9905 4470 c38 -38 72 -70 74 -70 3 0 -26 32 -64 70 -38 39 -72 70
-74 70 -3 0 26 -31 64 -70z M11274 4524 c-18 -14 -18 -15 4 -4 12 6 22 13 22 15 0 8 -5 6 -26
-11z M11814 4508 c-29 -33 -29 -33 4 -4 30 28 37 36 29 36 -2 0 -16 -15
-33 -32z M11719 4413 c-24 -28 -24 -28 4 -4 15 14 27 26 27 28 0 8 -8 1 -31
-24z M8590 4405 c0 -5 5 -17 10 -25 5 -8 10 -10 10 -5 0 6 -5 17 -10 25
-5 8 -10 11 -10 5z M10578 4393 c12 -2 30 -2 40 0 9 3 -1 5 -23 4 -22 0 -30 -2 -17 -4z M10853 4393 c9 -2 25 -2 35 0 9 3 1 5 -18 5 -19 0 -27 -2 -17 -5z M10703 4383 c15 -2 39 -2 55 0 15 2 2 4 -28 4 -30 0 -43 -2 -27 -4z M13052 4325 c-12 -25 -20 -45 -17 -45 7 0 47 81 43 86 -3 2 -14 -17
-26 -41z M17004 4318 c-19 -23 -19 -23 4 -4 21 18 27 26 19 26 -2 0 -12 -10
-23 -22z M11410 4230 c-8 -5 -10 -10 -5 -10 6 0 17 5 25 10 8 5 11 10 5 10 -5
0 -17 -5 -25 -10z M10528 4153 c6 -2 18 -2 25 0 6 3 1 5 -13 5 -14 0 -19 -2 -12 -5z M20848 4153 c386 -2 1018 -2 1405 0 386 1 70 2 -703 2 -773 0 -1089
-1 -702 -2z M10588 4143 c6 -2 18 -2 25 0 6 3 1 5 -13 5 -14 0 -19 -2 -12 -5z M11078 4143 c6 -2 18 -2 25 0 6 3 1 5 -13 5 -14 0 -19 -2 -12 -5z M10673 4133 c9 -2 25 -2 35 0 9 3 1 5 -18 5 -19 0 -27 -2 -17 -5z M10993 4133 c9 -2 25 -2 35 0 9 3 1 5 -18 5 -19 0 -27 -2 -17 -5z M10818 4123 c18 -2 45 -2 60 0 15 2 0 4 -33 4 -33 0 -45 -2 -27 -4z M15838 4113 c6 -2 18 -2 25 0 6 3 1 5 -13 5 -14 0 -19 -2 -12 -5z M15953 4103 c9 -2 25 -2 35 0 9 3 1 5 -18 5 -19 0 -27 -2 -17 -5z M16328 4103 c12 -2 30 -2 40 0 9 3 -1 5 -23 4 -22 0 -30 -2 -17 -4z M12804 3948 c-29 -33 -29 -33 4 -4 30 28 37 36 29 36 -2 0 -16 -15
-33 -32z M8875 3950 c10 -11 20 -20 23 -20 3 0 -3 9 -13 20 -10 11 -20 20 -23
20 -3 0 3 -9 13 -20z M8975 3840 c33 -33 62 -60 64 -60 3 0 -21 27 -54 60 -33 33 -62 60
-64 60 -3 0 21 -27 54 -60z M12705 3838 c-40 -43 -40 -43 3 -3 23 21 42 40 42 42 0 8 -9 0 -45
-39z M9095 3730 c10 -11 20 -20 23 -20 3 0 -3 9 -13 20 -10 11 -20 20 -23
20 -3 0 3 -9 13 -20z M7452 3715 c0 -16 2 -22 5 -12 2 9 2 23 0 30 -3 6 -5 -1 -5 -18z M17934 3688 c-19 -23 -19 -23 4 -4 21 18 27 26 19 26 -2 0 -12 -10
-23 -22z M7453 3600 c0 -47 2 -66 4 -42 2 23 2 61 0 85 -2 23 -4 4 -4 -43z M7453 3455 c0 -33 2 -45 4 -27 2 18 2 45 0 60 -2 15 -4 0 -4 -33z M11448 3223 c6 -2 18 -2 25 0 6 3 1 5 -13 5 -14 0 -19 -2 -12 -5z M11388 3213 c6 -2 18 -2 25 0 6 3 1 5 -13 5 -14 0 -19 -2 -12 -5z M15488 3213 c6 -2 18 -2 25 0 6 3 1 5 -13 5 -14 0 -19 -2 -12 -5z M10343 3203 c9 -2 23 -2 30 0 6 3 -1 5 -18 5 -16 0 -22 -2 -12 -5z M11318 3203 c6 -2 18 -2 25 0 6 3 1 5 -13 5 -14 0 -19 -2 -12 -5z M15568 3203 c6 -2 18 -2 25 0 6 3 1 5 -13 5 -14 0 -19 -2 -12 -5z M16688 3203 c6 -2 18 -2 25 0 6 3 1 5 -13 5 -14 0 -19 -2 -12 -5z M10423 3193 c9 -2 25 -2 35 0 9 3 1 5 -18 5 -19 0 -27 -2 -17 -5z M11223 3193 c9 -2 25 -2 35 0 9 3 1 5 -18 5 -19 0 -27 -2 -17 -5z M13122 3185 c15 -16 20 -17 30 -6 11 11 10 13 0 7 -7 -4 -21 -2 -30
5 -15 12 -15 11 0 -6z M15663 3193 c9 -2 23 -2 30 0 6 3 -1 5 -18 5 -16 0 -22 -2 -12 -5z M16593 3193 c9 -2 23 -2 30 0 6 3 -1 5 -18 5 -16 0 -22 -2 -12 -5z M10538 3183 c12 -2 32 -2 45 0 12 2 2 4 -23 4 -25 0 -35 -2 -22 -4z M11108 3183 c12 -2 30 -2 40 0 9 3 -1 5 -23 4 -22 0 -30 -2 -17 -4z M15788 3183 c12 -2 30 -2 40 0 9 3 -1 5 -23 4 -22 0 -30 -2 -17 -4z M16473 3183 c9 -2 25 -2 35 0 9 3 1 5 -18 5 -19 0 -27 -2 -17 -5z M10763 3173 c48 -2 125 -2 170 0 45 1 6 3 -88 3 -93 0 -130 -2 -82
-3z M15968 3173 c23 -2 59 -2 80 0 20 2 1 4 -43 4 -44 0 -61 -2 -37 -4z M16273 3173 c20 -2 54 -2 75 0 20 2 3 4 -38 4 -41 0 -58 -2 -37 -4z M12494 2780 c0 -13 4 -16 10 -10 7 7 7 13 0 20 -6 6 -10 3 -10 -10z M12234 2599 c-3 -6 -2 -15 3 -20 5 -5 9 -1 9 11 0 23 -2 24 -12 9z M13895 370 c10 -11 20 -20 23 -20 3 0 -3 9 -13 20 -10 11 -20 20 -23
20 -3 0 3 -9 13 -20z"/></g></svg>